<?xml version="1.0" encoding="UTF-8" standalone="no"?>
<!DOCTYPE svg PUBLIC "-//W3C//DTD SVG 1.1//EN"
 "http://www.w3.org/Graphics/SVG/1.1/DTD/svg11.dtd">
<!-- Generated by graphviz version 2.38.0 (20140413.2041)
 -->
<!-- Title: %3 Pages: 1 -->
<svg width="1241pt" height="188pt"
 viewBox="0.00 0.00 1240.83 188.00" xmlns="http://www.w3.org/2000/svg" xmlns:xlink="http://www.w3.org/1999/xlink">
<g id="graph0" class="graph" transform="scale(1 1) rotate(0) translate(4 184)">
<title>%3</title>
<polygon fill="white" stroke="none" points="-4,4 -4,-184 1236.83,-184 1236.83,4 -4,4"/>
<!-- action.Bugs -->
<g id="node1" class="node"><title>action.Bugs</title>
<ellipse fill="none" stroke="black" cx="560.092" cy="-90" rx="52.7911" ry="18"/>
<text text-anchor="middle" x="560.092" y="-86.3" font-family="Times,serif" font-size="14.00">action.Bugs</text>
</g>
<!-- records_lost -->
<g id="node2" class="node"><title>records_lost</title>
<ellipse fill="none" stroke="black" cx="479.092" cy="-18" rx="53.8905" ry="18"/>
<text text-anchor="middle" x="479.092" y="-14.3" font-family="Times,serif" font-size="14.00">records_lost</text>
</g>
<!-- action.Bugs&#45;&gt;records_lost -->
<g id="edge1" class="edge"><title>action.Bugs&#45;&gt;records_lost</title>
<path fill="none" stroke="black" d="M541.712,-73.1159C531.017,-63.8735 517.354,-52.0657 505.521,-41.8395"/>
<polygon fill="black" stroke="black" points="507.535,-38.954 497.68,-35.0635 502.958,-44.2503 507.535,-38.954"/>
</g>
<!-- action.Environmental -->
<g id="node3" class="node"><title>action.Environmental</title>
<ellipse fill="none" stroke="black" cx="87.0923" cy="-162" rx="87.1846" ry="18"/>
<text text-anchor="middle" x="87.0923" y="-158.3" font-family="Times,serif" font-size="14.00">action.Environmental</text>
</g>
<!-- action.Environmental&#45;&gt;action.Bugs -->
<g id="edge2" class="edge"><title>action.Environmental&#45;&gt;action.Bugs</title>
<path fill="none" stroke="black" d="M150.038,-149.523C161.044,-147.611 172.394,-145.699 183.092,-144 295.625,-126.132 427.557,-108.295 501.731,-98.5493"/>
<polygon fill="black" stroke="black" points="502.345,-101.999 511.806,-97.2288 501.436,-95.0582 502.345,-101.999"/>
</g>
<!-- action.Environmental&#45;&gt;records_lost -->
<g id="edge3" class="edge"><title>action.Environmental&#45;&gt;records_lost</title>
<path fill="none" stroke="black" d="M128.079,-145.967C176.538,-128.212 259.638,-97.8257 331.092,-72 365.568,-59.5396 404.608,-45.5646 433.933,-35.0944"/>
<polygon fill="black" stroke="black" points="435.243,-38.343 443.485,-31.6852 432.89,-31.7503 435.243,-38.343"/>
</g>
<!-- action.Error -->
<g id="node4" class="node"><title>action.Error</title>
<ellipse fill="none" stroke="black" cx="245.092" cy="-162" rx="53.0913" ry="18"/>
<text text-anchor="middle" x="245.092" y="-158.3" font-family="Times,serif" font-size="14.00">action.Error</text>
</g>
<!-- action.Error&#45;&gt;action.Bugs -->
<g id="edge4" class="edge"><title>action.Error&#45;&gt;action.Bugs</title>
<path fill="none" stroke="black" d="M284.999,-149.868C292.645,-147.839 300.601,-145.797 308.092,-144 375.748,-127.771 454.275,-111.687 505.452,-101.569"/>
<polygon fill="black" stroke="black" points="506.177,-104.994 515.312,-99.6271 504.824,-98.1259 506.177,-104.994"/>
</g>
<!-- action.Error&#45;&gt;records_lost -->
<g id="edge5" class="edge"><title>action.Error&#45;&gt;records_lost</title>
<path fill="none" stroke="black" d="M270.134,-145.804C312.446,-120.127 398.102,-68.1479 445.554,-39.3526"/>
<polygon fill="black" stroke="black" points="447.497,-42.2673 454.23,-34.0872 443.865,-36.283 447.497,-42.2673"/>
</g>
<!-- action.Misuse -->
<g id="node5" class="node"><title>action.Misuse</title>
<ellipse fill="none" stroke="black" cx="377.092" cy="-162" rx="60.3893" ry="18"/>
<text text-anchor="middle" x="377.092" y="-158.3" font-family="Times,serif" font-size="14.00">action.Misuse</text>
</g>
<!-- action.Misuse&#45;&gt;action.Bugs -->
<g id="edge6" class="edge"><title>action.Misuse&#45;&gt;action.Bugs</title>
<path fill="none" stroke="black" d="M412.811,-147.337C442.599,-135.943 485.141,-119.67 516.85,-107.541"/>
<polygon fill="black" stroke="black" points="518.228,-110.761 526.317,-103.919 515.727,-104.223 518.228,-110.761"/>
</g>
<!-- action.Misuse&#45;&gt;records_lost -->
<g id="edge7" class="edge"><title>action.Misuse&#45;&gt;records_lost</title>
<path fill="none" stroke="black" d="M389.194,-144.153C406.984,-119.386 440.322,-72.9741 461.02,-44.1592"/>
<polygon fill="black" stroke="black" points="464.015,-45.9887 467.007,-35.825 458.33,-41.9049 464.015,-45.9887"/>
</g>
<!-- action.Physical -->
<g id="node6" class="node"><title>action.Physical</title>
<ellipse fill="none" stroke="black" cx="520.092" cy="-162" rx="64.189" ry="18"/>
<text text-anchor="middle" x="520.092" y="-158.3" font-family="Times,serif" font-size="14.00">action.Physical</text>
</g>
<!-- action.Physical&#45;&gt;action.Bugs -->
<g id="edge8" class="edge"><title>action.Physical&#45;&gt;action.Bugs</title>
<path fill="none" stroke="black" d="M529.775,-144.055C534.492,-135.801 540.263,-125.701 545.499,-116.538"/>
<polygon fill="black" stroke="black" points="548.576,-118.208 550.499,-107.789 542.498,-114.735 548.576,-118.208"/>
</g>
<!-- action.Physical&#45;&gt;records_lost -->
<g id="edge9" class="edge"><title>action.Physical&#45;&gt;records_lost</title>
<path fill="none" stroke="black" d="M512.149,-144.108C507.556,-133.84 501.943,-120.366 498.092,-108 491.76,-87.667 486.829,-64.0726 483.579,-46.288"/>
<polygon fill="black" stroke="black" points="487.001,-45.5423 481.818,-36.3019 480.108,-46.7578 487.001,-45.5423"/>
</g>
<!-- action.Social -->
<g id="node7" class="node"><title>action.Social</title>
<ellipse fill="none" stroke="black" cx="957.092" cy="-162" rx="56.59" ry="18"/>
<text text-anchor="middle" x="957.092" y="-158.3" font-family="Times,serif" font-size="14.00">action.Social</text>
</g>
<!-- action.Social&#45;&gt;action.Bugs -->
<g id="edge10" class="edge"><title>action.Social&#45;&gt;action.Bugs</title>
<path fill="none" stroke="black" d="M915.686,-149.705C907.564,-147.668 899.085,-145.665 891.092,-144 796.316,-124.251 684.948,-107.789 618.57,-98.681"/>
<polygon fill="black" stroke="black" points="618.694,-95.1656 608.313,-97.283 617.748,-102.101 618.694,-95.1656"/>
</g>
<!-- action.Social&#45;&gt;records_lost -->
<g id="edge11" class="edge"><title>action.Social&#45;&gt;records_lost</title>
<path fill="none" stroke="black" d="M917.16,-149.137C829.826,-123.193 622.11,-61.4866 527.514,-33.3848"/>
<polygon fill="black" stroke="black" points="528.489,-30.0234 517.907,-30.5307 526.496,-36.7335 528.489,-30.0234"/>
</g>
<!-- action.Hacking -->
<g id="node8" class="node"><title>action.Hacking</title>
<ellipse fill="none" stroke="black" cx="667.092" cy="-162" rx="64.189" ry="18"/>
<text text-anchor="middle" x="667.092" y="-158.3" font-family="Times,serif" font-size="14.00">action.Hacking</text>
</g>
<!-- action.Hacking&#45;&gt;action.Bugs -->
<g id="edge12" class="edge"><title>action.Hacking&#45;&gt;action.Bugs</title>
<path fill="none" stroke="black" d="M643.079,-145.291C628.003,-135.427 608.383,-122.592 592.006,-111.878"/>
<polygon fill="black" stroke="black" points="593.575,-108.722 583.29,-106.176 589.742,-114.58 593.575,-108.722"/>
</g>
<!-- action.Malware -->
<g id="node9" class="node"><title>action.Malware</title>
<ellipse fill="none" stroke="black" cx="816.092" cy="-162" rx="66.0889" ry="18"/>
<text text-anchor="middle" x="816.092" y="-158.3" font-family="Times,serif" font-size="14.00">action.Malware</text>
</g>
<!-- action.Malware&#45;&gt;action.Bugs -->
<g id="edge13" class="edge"><title>action.Malware&#45;&gt;action.Bugs</title>
<path fill="none" stroke="black" d="M771.208,-148.727C726.052,-136.38 656.584,-117.384 609.79,-104.589"/>
<polygon fill="black" stroke="black" points="610.443,-101.139 599.874,-101.878 608.597,-107.891 610.443,-101.139"/>
</g>
<!-- U -->
<g id="node10" class="node"><title>U</title>
<ellipse fill="none" stroke="black" cx="1132.09" cy="-162" rx="100.983" ry="18"/>
<text text-anchor="middle" x="1132.09" y="-158.3" font-family="Times,serif" font-size="14.00">Unobserved Confounders</text>
</g>
<!-- U&#45;&gt;action.Bugs -->
<g id="edge14" class="edge"><title>U&#45;&gt;action.Bugs</title>
<path fill="none" stroke="black" d="M1060.04,-149.338C1047.72,-147.466 1035.05,-145.616 1023.09,-144 878.677,-124.481 708.278,-106.192 619.95,-97.0644"/>
<polygon fill="black" stroke="black" points="620.156,-93.5673 609.85,-96.0238 619.439,-100.53 620.156,-93.5673"/>
</g>
<!-- U&#45;&gt;records_lost -->
<g id="edge15" class="edge"><title>U&#45;&gt;records_lost</title>
<path fill="none" stroke="black" d="M1072.17,-147.423C993.991,-129.767 852.917,-98.0962 732.092,-72 663.826,-57.2557 585.062,-40.8514 533.792,-30.2542"/>
<polygon fill="black" stroke="black" points="534.417,-26.8095 523.916,-28.2144 533.001,-33.6648 534.417,-26.8095"/>
</g>
</g>
</svg>
